<svg width="360" height="140" xmlns="http://www.w3.org/2000/svg" xmlns:xlink="http://www.w3.org/1999/xlink"><defs><path d="M153.793 0h146.8l37.513 140H48.229L21.076 38.667a3 3 0 0 1 2.122-3.674L153.793 0z" id="b"/><filter x="-14.2%" y="-32.1%" width="128.4%" height="164.3%" filterUnits="objectBoundingBox" id="a"><feOffset in="SourceAlpha" result="shadowOffsetOuter1"/><feGaussianBlur stdDeviation="15" in="shadowOffsetOuter1" result="shadowBlurOuter1"/><feColorMatrix values="0 0 0 0 0 0 0 0 0 0 0 0 0 0 0 0 0 0 0.5 0" in="shadowBlurOuter1"/></filter></defs><path fill="#343D45" d="M0 0h360v140H0z"/><use filter="url(#a)" xlink:href="#b"/><use fill-rule="evenodd" xlink:href="#b"/><path d="M93.515 86.951c-.943.253-1.828.325-2.654.216a5.483 5.483 0 0 1-2.259-.814 6.054 6.054 0 0 1-1.76-1.744c-.493-.73-.874-1.596-1.143-2.6l-.039-.144c-.256-.956-.341-1.879-.256-2.77a6.58 6.58 0 0 1 .706-2.443 5.91 5.91 0 0 1 1.562-1.896 6.212 6.212 0 0 1 2.308-1.143 6.89 6.89 0 0 1 1.995-.243 5.35 5.35 0 0 1 1.828.365c.565.225 1.07.562 1.515 1.013.445.451.797 1.017 1.058 1.7l-1.56.417c-.435-.946-1.013-1.591-1.733-1.936-.721-.344-1.638-.368-2.75-.07-.677.182-1.256.473-1.739.874a4.154 4.154 0 0 0-1.118 1.447c-.264.563-.416 1.206-.455 1.93-.04.722.05 1.49.266 2.3l.04.144c.22.822.52 1.535.903 2.139.382.604.824 1.081 1.326 1.433.503.351 1.061.574 1.676.668.615.095 1.273.048 1.974-.14 1.064-.285 1.87-.783 2.418-1.493.548-.71.765-1.62.649-2.73l1.469-.394c.172 1.561-.127 2.84-.897 3.836-.77.997-1.88 1.69-3.33 2.078zm5.34-11.77l1.505-.404.456 1.705c.074-.305.175-.594.302-.868.128-.274.29-.525.488-.753.199-.228.448-.434.748-.618.3-.185.661-.34 1.08-.465l.38 1.415a6.98 6.98 0 0 0-1.239.526c-.361.2-.647.452-.857.754-.21.303-.337.664-.38 1.084-.043.42.013.92.168 1.5l1.395 5.204-1.505.404-2.542-9.485zm13.501 6.722a4.97 4.97 0 0 1-1.942.15 4.492 4.492 0 0 1-1.71-.58 4.43 4.43 0 0 1-1.358-1.26c-.383-.532-.671-1.161-.865-1.886l-.04-.146a5.92 5.92 0 0 1-.2-2.055 4.721 4.721 0 0 1 .503-1.786 4.227 4.227 0 0 1 1.138-1.374 4.625 4.625 0 0 1 1.7-.835 5.053 5.053 0 0 1 1.658-.162c.56.037 1.09.19 1.59.458s.947.67 1.343 1.205.708 1.226.934 2.072l.132.49-7.145 1.914c.327 1.078.822 1.837 1.484 2.275.661.438 1.482.526 2.461.264 1.487-.399 2.18-1.174 2.079-2.326l1.505-.403c.086 1-.167 1.842-.762 2.526-.594.684-1.429 1.17-2.505 1.459zm1.016-6.511c-.335-.96-.798-1.588-1.39-1.883-.59-.295-1.278-.337-2.064-.127-.774.208-1.34.622-1.699 1.242-.358.621-.49 1.373-.397 2.255l5.55-1.487zm7.997 4.096c-.435.116-.86.172-1.277.167a2.872 2.872 0 0 1-1.142-.238 2.49 2.49 0 0 1-.905-.69c-.257-.308-.45-.703-.58-1.186-.145-.544-.136-1.04.03-1.486a3.04 3.04 0 0 1 .818-1.19c.38-.348.843-.65 1.39-.907a10.372 10.372 0 0 1 1.726-.628l1.36-.365-.184-.689c-.204-.761-.508-1.266-.911-1.515-.404-.248-.968-.275-1.694-.08-1.305.35-1.878 1.112-1.719 2.287l-1.505.404c-.098-.557-.085-1.053.039-1.488.123-.435.325-.816.607-1.144a3.585 3.585 0 0 1 1.024-.819 5.906 5.906 0 0 1 2.639-.707c.45-.01.868.072 1.252.248s.73.455 1.04.838c.31.384.555.908.733 1.573l1.676 6.256-1.505.404-.32-1.197c-.231.54-.546.988-.943 1.34-.398.354-.948.624-1.649.812zm-.176-1.236a4.023 4.023 0 0 0 1.074-.453 2.76 2.76 0 0 0 .77-.682c.196-.26.328-.552.397-.875a2.177 2.177 0 0 0-.042-1.028l-.316-1.179-1.306.35c-.471.126-.9.277-1.288.452-.387.175-.709.375-.966.6a1.815 1.815 0 0 0-.536.755c-.1.28-.103.595-.01.945.133.496.37.85.713 1.063.342.213.845.23 1.51.052zm10.684-1.619c-.87.234-1.576.176-2.116-.171-.54-.348-.91-.897-1.111-1.646l-1.565-5.84-1.36.365-.34-1.27 1.36-.364-.578-2.158 1.505-.403.578 2.158 2.212-.593.34 1.27-2.212.592 1.526 5.694c.246.92.762 1.273 1.548 1.063a3.384 3.384 0 0 0 1.107-.51l.34 1.269a3.118 3.118 0 0 1-.487.286 4.44 4.44 0 0 1-.747.258zm7.662-2.014a4.97 4.97 0 0 1-1.942.151 4.492 4.492 0 0 1-1.71-.581 4.43 4.43 0 0 1-1.358-1.26c-.382-.532-.67-1.16-.865-1.886l-.039-.145a5.92 5.92 0 0 1-.2-2.055 4.721 4.721 0 0 1 .502-1.787 4.227 4.227 0 0 1 1.138-1.374 4.625 4.625 0 0 1 1.7-.835 5.053 5.053 0 0 1 1.658-.162c.56.038 1.09.19 1.59.458s.947.67 1.343 1.205.708 1.226.935 2.072l.13.49-7.144 1.914c.328 1.079.822 1.837 1.484 2.275.662.438 1.482.526 2.461.264 1.487-.399 2.18-1.174 2.079-2.326l1.505-.403c.087 1-.167 1.843-.761 2.527-.594.684-1.43 1.17-2.506 1.458zm1.016-6.511c-.335-.96-.798-1.587-1.389-1.883-.59-.295-1.28-.337-2.065-.126-.774.207-1.34.62-1.698 1.242-.359.62-.491 1.372-.397 2.254l5.549-1.487zm6.664-10.746l1.523-.408 3.756 14.018-1.523.408-3.756-14.018zm6.074 3.232l1.506-.404 2.54 9.484-1.504.404-2.542-9.484zm.196-2.171a.996.996 0 0 1-.785-.101.996.996 0 0 1-.48-.63.996.996 0 0 1 .101-.785.996.996 0 0 1 .63-.48.996.996 0 0 1 .785.101.996.996 0 0 1 .48.63.996.996 0 0 1-.101.785.996.996 0 0 1-.63.48zm3.54 1.17l1.632-.438 4.944 7.208.641-8.704 1.56-.418-.868 10.398-1.922.515-5.987-8.561zm11.008-2.95l1.505-.403 2.541 9.484-1.505.403-2.541-9.484zm.195-2.17a.996.996 0 0 1-.785-.101.996.996 0 0 1-.48-.63.996.996 0 0 1 .101-.785.996.996 0 0 1 .63-.48.996.996 0 0 1 .785.101.996.996 0 0 1 .48.63.996.996 0 0 1-.101.785.996.996 0 0 1-.63.48zm4.61.883l1.505-.404.404 1.505c.097-.505.359-.993.783-1.463.425-.47 1.03-.81 1.816-1.021.484-.13.95-.18 1.398-.151a2.7 2.7 0 0 1 1.24.386c.38.23.715.564 1.008 1.004.293.44.531 1.004.716 1.693l1.56 5.821-1.505.403-1.59-5.93c-.223-.834-.568-1.396-1.034-1.685-.466-.29-1.08-.333-1.842-.129-.35.094-.672.238-.963.433a2.482 2.482 0 0 0-.712.716 2.465 2.465 0 0 0-.361.971c-.058.366-.03.76.083 1.183l1.54 5.748-1.505.404-2.54-9.484zm18.321 8.968c-.7.188-1.33.272-1.885.252-.556-.02-1.041-.113-1.455-.28a2.963 2.963 0 0 1-1.055-.709 3.563 3.563 0 0 1-.685-1.031l1.542-.413c.512 1.042 1.572 1.347 3.18.916.931-.25 1.61-.68 2.035-1.293.425-.613.502-1.427.23-2.443l-.37-1.378a3.25 3.25 0 0 1-.355.814 3.935 3.935 0 0 1-.609.776c-.24.24-.51.454-.809.644a3.42 3.42 0 0 1-.956.421 4.554 4.554 0 0 1-1.812.127 4.166 4.166 0 0 1-1.62-.567 4.51 4.51 0 0 1-1.279-1.183 5.034 5.034 0 0 1-.81-1.717l-.034-.127a5.28 5.28 0 0 1-.162-1.91 4.888 4.888 0 0 1 .504-1.748 4.349 4.349 0 0 1 1.124-1.39 4.43 4.43 0 0 1 1.696-.853c.798-.214 1.489-.22 2.074-.021a3.94 3.94 0 0 1 1.479.877l-.409-1.524 1.506-.403 2.37 8.85c.185.689.232 1.321.14 1.896a3.67 3.67 0 0 1-.6 1.532 4.12 4.12 0 0 1-1.22 1.143 6.395 6.395 0 0 1-1.755.742zm-1.364-5.019a3.404 3.404 0 0 0 1.164-.554c.34-.253.611-.56.813-.918a3.09 3.09 0 0 0 .371-1.227 4.159 4.159 0 0 0-.146-1.486l-.034-.127c-.285-1.064-.775-1.817-1.47-2.26-.695-.441-1.508-.538-2.439-.288a3.16 3.16 0 0 0-1.201.594c-.33.27-.582.586-.756.95a3.268 3.268 0 0 0-.303 1.228c-.027.455.026.93.159 1.425l.038.145c.14.52.342.962.608 1.324.266.363.566.652.902.866.336.215.703.35 1.1.405.397.056.795.03 1.194-.077zm-97.598 44.869l1.506-.403.427 1.595c.072-.265.19-.533.358-.805a4.284 4.284 0 0 1 1.404-1.397c.3-.184.626-.323.977-.417a4.665 4.665 0 0 1 1.81-.135 3.94 3.94 0 0 1 1.622.576c.49.31.924.73 1.3 1.265.377.534.664 1.17.862 1.907l.038.145c.195.726.27 1.415.224 2.068a4.837 4.837 0 0 1-.455 1.784 3.941 3.941 0 0 1-1.09 1.371 4.492 4.492 0 0 1-1.683.83c-.785.21-1.493.219-2.121.024-.629-.194-1.146-.49-1.55-.887l1.302 4.86-1.505.403-3.426-12.784zm6.82 7.171c.943-.252 1.58-.75 1.913-1.494.332-.743.342-1.695.031-2.855l-.039-.145c-.158-.593-.377-1.095-.656-1.506-.278-.411-.587-.73-.927-.957a2.62 2.62 0 0 0-1.104-.423 2.976 2.976 0 0 0-1.194.077 3.53 3.53 0 0 0-1.166.546 2.707 2.707 0 0 0-.811.927 3.21 3.21 0 0 0-.352 1.299c-.035.495.028 1.045.19 1.65l.039.145c.162.604.378 1.11.65 1.517.27.407.581.722.933.945.351.223.74.356 1.165.397.426.041.869 0 1.328-.123zm4.768-10.276l1.505-.403.457 1.704c.074-.305.175-.594.302-.868.128-.274.29-.525.488-.753.198-.228.448-.434.748-.618s.66-.339 1.08-.464l.38 1.414a6.98 6.98 0 0 0-1.24.526c-.36.2-.646.452-.856.755-.21.302-.337.664-.38 1.083-.044.42.013.92.168 1.5l1.395 5.205-1.505.403-2.542-9.484zm13.24 5.451a3.29 3.29 0 0 0 1.219-.598c.341-.273.603-.603.785-.988.182-.386.286-.819.313-1.299a4.817 4.817 0 0 0-.174-1.518l-.034-.127a4.97 4.97 0 0 0-.616-1.429 3.372 3.372 0 0 0-.932-.974 2.861 2.861 0 0 0-1.173-.463 3.224 3.224 0 0 0-1.347.088 3.29 3.29 0 0 0-1.22.6 2.755 2.755 0 0 0-.784.987 3.472 3.472 0 0 0-.313 1.299c-.027.48.033.992.178 1.536l.04.145c.29 1.088.798 1.882 1.522 2.381.723.5 1.568.62 2.535.36zm.317 1.257a4.888 4.888 0 0 1-1.966.137 4.542 4.542 0 0 1-1.738-.612 4.743 4.743 0 0 1-1.372-1.275 5.457 5.457 0 0 1-.86-1.83l-.038-.145a5.437 5.437 0 0 1-.171-2.054 4.866 4.866 0 0 1 .56-1.792 4.429 4.429 0 0 1 1.2-1.39 4.997 4.997 0 0 1 1.774-.855 5.018 5.018 0 0 1 1.953-.144c.638.082 1.219.279 1.743.592.525.313.984.734 1.379 1.263.394.53.687 1.15.878 1.864l.039.145c.19.713.249 1.4.173 2.062a4.663 4.663 0 0 1-.568 1.795 4.596 4.596 0 0 1-1.213 1.384 4.997 4.997 0 0 1-1.773.855zm10.109-2.748c-.87.233-1.576.176-2.116-.172-.54-.347-.91-.896-1.112-1.645l-1.564-5.84-1.36.365-.34-1.27 1.36-.364-.579-2.158 1.505-.403.579 2.158 2.212-.593.34 1.27-2.212.592 1.525 5.694c.247.919.763 1.273 1.549 1.063a3.384 3.384 0 0 0 1.107-.51l.34 1.268a3.118 3.118 0 0 1-.487.286 4.44 4.44 0 0 1-.747.259zm7.4-3.285a3.29 3.29 0 0 0 1.219-.599c.341-.273.603-.602.785-.988.181-.385.286-.818.313-1.298a4.817 4.817 0 0 0-.174-1.518l-.034-.127a4.97 4.97 0 0 0-.616-1.429 3.372 3.372 0 0 0-.932-.975 2.861 2.861 0 0 0-1.173-.463 3.224 3.224 0 0 0-1.347.089 3.29 3.29 0 0 0-1.22.599 2.755 2.755 0 0 0-.784.988 3.472 3.472 0 0 0-.313 1.298c-.027.48.032.992.178 1.536l.04.145c.29 1.089.798 1.882 1.522 2.382.723.499 1.568.62 2.535.36zm.316 1.256a4.888 4.888 0 0 1-1.965.138 4.542 4.542 0 0 1-1.738-.613 4.743 4.743 0 0 1-1.372-1.275 5.457 5.457 0 0 1-.86-1.83l-.038-.145a5.437 5.437 0 0 1-.171-2.053 4.866 4.866 0 0 1 .56-1.792 4.429 4.429 0 0 1 1.2-1.391 4.997 4.997 0 0 1 1.774-.854 5.018 5.018 0 0 1 1.953-.145c.638.082 1.219.28 1.743.593.525.313.984.734 1.378 1.263.395.529.688 1.15.879 1.864l.039.145c.19.713.249 1.4.173 2.062a4.663 4.663 0 0 1-.568 1.795 4.596 4.596 0 0 1-1.213 1.384 4.997 4.997 0 0 1-1.774.854zm10.11-2.747c-.87.233-1.576.176-2.116-.172s-.911-.896-1.112-1.646l-1.564-5.84-1.36.365-.34-1.27 1.36-.364-.579-2.157 1.505-.404.579 2.158 2.212-.593.34 1.27-2.212.593 1.525 5.694c.247.919.763 1.273 1.548 1.062a3.384 3.384 0 0 0 1.108-.51l.34 1.269a3.118 3.118 0 0 1-.487.286 4.44 4.44 0 0 1-.747.259zm6.123-2.827l-5.997-7.509 1.614-.432 4.724 6.023.807-7.505 1.542-.413-1.816 14.189-1.523.408.649-4.76zm4.884-10.424l1.505-.403.428 1.595c.071-.265.19-.533.357-.805a4.284 4.284 0 0 1 1.404-1.396c.3-.185.626-.324.977-.418a4.665 4.665 0 0 1 1.81-.135 3.94 3.94 0 0 1 1.622.576c.491.31.925.73 1.301 1.265.376.534.663 1.17.861 1.907l.039.145c.194.726.269 1.415.224 2.069a4.837 4.837 0 0 1-.455 1.783 3.941 3.941 0 0 1-1.09 1.371 4.492 4.492 0 0 1-1.683.83c-.786.21-1.493.219-2.122.024-.629-.194-1.145-.49-1.55-.887l1.303 4.86-1.505.404-3.426-12.785zm6.82 7.172c.942-.253 1.58-.751 1.912-1.494.332-.744.343-1.696.032-2.856l-.04-.145c-.158-.593-.377-1.095-.655-1.506-.279-.411-.588-.73-.927-.957a2.62 2.62 0 0 0-1.105-.423 2.976 2.976 0 0 0-1.194.077 3.53 3.53 0 0 0-1.166.546 2.707 2.707 0 0 0-.81.927 3.21 3.21 0 0 0-.352 1.299c-.036.495.027 1.045.19 1.65l.038.145c.162.604.379 1.11.65 1.517.27.407.582.722.933.945.351.223.74.356 1.166.397.426.042.868 0 1.327-.122zm11.233-1.67a4.97 4.97 0 0 1-1.942.152 4.492 4.492 0 0 1-1.71-.582 4.43 4.43 0 0 1-1.358-1.259c-.382-.532-.67-1.161-.865-1.887l-.04-.145a5.92 5.92 0 0 1-.2-2.055 4.721 4.721 0 0 1 .503-1.787 4.227 4.227 0 0 1 1.138-1.374 4.625 4.625 0 0 1 1.7-.834 5.053 5.053 0 0 1 1.658-.162c.56.037 1.09.19 1.59.458s.947.67 1.343 1.205.708 1.226.934 2.072l.132.49-7.145 1.914c.328 1.078.822 1.837 1.484 2.275.662.438 1.482.526 2.461.263 1.487-.398 2.18-1.173 2.079-2.325l1.505-.403c.087 1-.167 1.842-.761 2.526-.595.684-1.43 1.17-2.506 1.459zm1.016-6.51c-.335-.96-.798-1.588-1.389-1.883-.59-.295-1.28-.337-2.065-.127-.774.207-1.34.621-1.698 1.242-.359.621-.491 1.372-.397 2.254l5.549-1.487zm8.56 3.945c-1.137.304-2.1.274-2.892-.09-.79-.365-1.342-1.03-1.652-1.997l1.469-.393c.212.552.529.946.949 1.184.42.237 1.01.254 1.772.05.725-.195 1.218-.46 1.478-.795s.322-.757.186-1.264c-.133-.496-.413-.803-.84-.922s-1.027-.146-1.8-.082c-.646.057-1.2.066-1.664.028-.464-.037-.852-.13-1.164-.28a1.974 1.974 0 0 1-.762-.632 3.115 3.115 0 0 1-.459-1.024 2.327 2.327 0 0 1-.018-1.23c.104-.383.28-.729.529-1.035.248-.306.547-.568.897-.785.35-.217.713-.375 1.088-.476.423-.113.84-.176 1.251-.19.411-.012.8.049 1.167.184.366.135.7.35.999.646.3.295.547.689.744 1.18l-1.451.389c-.248-.49-.558-.813-.93-.966-.37-.153-.859-.148-1.463.014-.544.145-.946.386-1.206.721-.26.335-.335.709-.225 1.12.058.217.14.393.248.526.107.133.26.235.46.304.2.07.455.112.763.126.308.015.69 0 1.145-.044.51-.033.985-.047 1.427-.042.441.004.837.067 1.187.187.35.12.649.318.898.595.249.277.441.669.577 1.177.234.87.13 1.646-.309 2.327-.44.682-1.24 1.178-2.4 1.489zm7.189-12.266l1.632-.438 4.258 7.042.257-8.252 1.306-.35 4.203 7.057.185-8.232 1.542-.413-.415 10.276-1.668.447-3.882-6.58-.307 7.702-1.65.442-5.461-8.701zm15.668-4.199l1.505-.403 2.541 9.484-1.505.404-2.541-9.485zm.195-2.17a.996.996 0 0 1-.785-.101.996.996 0 0 1-.48-.63.996.996 0 0 1 .101-.785.996.996 0 0 1 .63-.48.996.996 0 0 1 .785.101.996.996 0 0 1 .48.63.996.996 0 0 1-.101.785.996.996 0 0 1-.63.48zm10.069 9.721c-.87.233-1.576.176-2.116-.171-.54-.348-.91-.897-1.112-1.646l-1.564-5.84-1.36.365-.34-1.27 1.36-.364-.579-2.158 1.506-.403.578 2.158 2.212-.593.34 1.27-2.212.592 1.526 5.694c.246.92.762 1.273 1.548 1.063a3.384 3.384 0 0 0 1.107-.51l.34 1.269a3.118 3.118 0 0 1-.487.286 4.44 4.44 0 0 1-.747.258zm-.018-15.155l1.505-.403 1.618 6.038c.098-.505.359-.993.784-1.463.424-.47 1.03-.81 1.815-1.021.484-.13.95-.18 1.398-.151a2.7 2.7 0 0 1 1.24.386c.38.23.715.564 1.008 1.003.293.44.532 1.005.716 1.694l1.56 5.82-1.505.404-1.589-5.93c-.223-.834-.568-1.396-1.035-1.685-.466-.29-1.08-.333-1.842-.129-.35.094-.671.238-.962.433a2.482 2.482 0 0 0-.712.716 2.465 2.465 0 0 0-.362.971c-.058.365-.03.76.084 1.183l1.54 5.748-1.505.404-3.756-14.018zM98.18 126.05l3.899-1.044a7.689 7.689 0 0 1 1.803-.27 4.32 4.32 0 0 1 1.612.25c.489.18.915.463 1.278.852.363.389.632.91.807 1.562l.02.073c.142.532.183 1.023.123 1.473-.061.45-.199.856-.413 1.218-.214.362-.49.686-.828.97-.338.286-.72.53-1.144.735l5.511 4.684-1.759.472-5.373-4.605-1.995.534 1.51 5.64-1.577.423-3.474-12.966zm5.635 5.002c.931-.25 1.585-.638 1.962-1.167s.458-1.192.244-1.99l-.02-.072c-.116-.435-.281-.786-.495-1.053a1.846 1.846 0 0 0-.757-.575 2.382 2.382 0 0 0-1.002-.149 5.725 5.725 0 0 0-1.22.2l-2.43.651 1.289 4.806 2.43-.651zm13.26 4.008a4.97 4.97 0 0 1-1.941.15 4.492 4.492 0 0 1-1.71-.58 4.43 4.43 0 0 1-1.359-1.26c-.382-.532-.67-1.161-.865-1.887l-.039-.145a5.92 5.92 0 0 1-.2-2.055 4.721 4.721 0 0 1 .502-1.787 4.227 4.227 0 0 1 1.138-1.374 4.625 4.625 0 0 1 1.701-.834 5.053 5.053 0 0 1 1.657-.162c.561.037 1.091.19 1.59.458.5.268.948.67 1.344 1.205.396.535.707 1.226.934 2.072l.131.49-7.145 1.914c.328 1.078.823 1.837 1.484 2.275.662.438 1.482.526 2.462.263 1.487-.398 2.18-1.173 2.078-2.325l1.505-.404c.087 1-.167 1.843-.761 2.527-.594.684-1.43 1.17-2.505 1.459zm1.016-6.512c-.335-.96-.798-1.587-1.389-1.882-.59-.295-1.279-.338-2.065-.127-.773.207-1.34.621-1.698 1.242-.358.621-.49 1.372-.397 2.254l5.55-1.487zm7.998 4.097c-.436.116-.861.172-1.277.167a2.872 2.872 0 0 1-1.143-.238 2.49 2.49 0 0 1-.904-.69c-.257-.308-.45-.703-.58-1.187-.146-.544-.136-1.039.03-1.485a3.04 3.04 0 0 1 .817-1.19c.38-.349.843-.65 1.39-.908a10.372 10.372 0 0 1 1.727-.627l1.36-.365-.185-.689c-.204-.762-.507-1.267-.91-1.515-.404-.248-.969-.275-1.694-.08-1.306.35-1.879 1.112-1.72 2.287l-1.505.403c-.097-.557-.084-1.052.04-1.487.122-.435.325-.816.606-1.144a3.585 3.585 0 0 1 1.025-.819 5.906 5.906 0 0 1 2.638-.707c.45-.01.868.072 1.252.248.384.175.731.455 1.041.838.31.384.554.908.732 1.573l1.677 6.256-1.505.403-.321-1.197c-.23.542-.545.989-.943 1.342-.398.352-.947.623-1.648.81zm-.176-1.236a4.023 4.023 0 0 0 1.074-.453 2.76 2.76 0 0 0 .77-.682c.195-.26.328-.552.397-.875a2.177 2.177 0 0 0-.043-1.028l-.315-1.179-1.306.35c-.472.126-.9.277-1.288.452-.387.175-.71.375-.967.6a1.815 1.815 0 0 0-.536.755c-.1.28-.103.594-.009.945.133.496.37.85.712 1.063.342.213.846.23 1.51.052zm11.745-1.864a5.11 5.11 0 0 1-1.93.157 4.453 4.453 0 0 1-1.727-.567 4.58 4.58 0 0 1-1.385-1.252c-.394-.53-.69-1.163-.888-1.9l-.039-.145a5.44 5.44 0 0 1-.17-2.083 4.78 4.78 0 0 1 .579-1.797 4.646 4.646 0 0 1 1.195-1.38 4.712 4.712 0 0 1 1.7-.834 5.913 5.913 0 0 1 1.49-.205 3.95 3.95 0 0 1 1.405.236c.438.16.841.419 1.208.774.367.355.668.825.903 1.41l-1.487.399c-.322-.718-.77-1.168-1.344-1.35-.573-.184-1.187-.188-1.84-.013a2.957 2.957 0 0 0-1.137.577c-.324.268-.58.593-.77.974-.189.38-.302.816-.34 1.306a4.68 4.68 0 0 0 .168 1.568l.039.145c.314 1.173.838 1.981 1.573 2.426.735.444 1.561.544 2.48.297.339-.09.649-.225.931-.405.283-.179.522-.399.718-.658.196-.26.337-.557.422-.891.086-.334.095-.7.027-1.096l1.397-.374c.087.52.078 1.032-.027 1.533a3.82 3.82 0 0 1-.576 1.37 4.28 4.28 0 0 1-1.07 1.083c-.435.31-.937.542-1.505.695zm9.493-2.583c-.87.233-1.576.176-2.116-.172-.54-.347-.91-.896-1.112-1.645l-1.564-5.84-1.36.365-.34-1.27 1.36-.364-.579-2.158 1.506-.403.578 2.158 2.212-.593.34 1.27-2.212.592 1.526 5.694c.246.92.762 1.273 1.548 1.063a3.384 3.384 0 0 0 1.107-.51l.34 1.269a3.118 3.118 0 0 1-.487.286 4.44 4.44 0 0 1-.747.258zm12.522-3.316a5.11 5.11 0 0 1-1.93.157 4.453 4.453 0 0 1-1.727-.567 4.58 4.58 0 0 1-1.385-1.252c-.394-.53-.69-1.163-.888-1.9l-.039-.145a5.44 5.44 0 0 1-.17-2.083 4.78 4.78 0 0 1 .579-1.797 4.646 4.646 0 0 1 1.195-1.38 4.712 4.712 0 0 1 1.7-.834 5.913 5.913 0 0 1 1.49-.205 3.95 3.95 0 0 1 1.405.236c.438.16.84.419 1.208.774.367.355.668.825.903 1.41l-1.487.399c-.322-.717-.77-1.168-1.344-1.35-.573-.184-1.187-.188-1.84-.013a2.957 2.957 0 0 0-1.137.577c-.324.268-.58.593-.77.974-.19.381-.302.816-.34 1.306a4.68 4.68 0 0 0 .168 1.568l.039.145c.314 1.173.838 1.981 1.573 2.426.735.445 1.561.544 2.48.298.339-.091.649-.226.931-.406.283-.179.522-.398.718-.658.196-.26.337-.557.422-.89.086-.335.095-.7.027-1.097l1.397-.374c.087.521.078 1.032-.027 1.533a3.82 3.82 0 0 1-.576 1.37 4.28 4.28 0 0 1-1.07 1.083c-.435.31-.937.542-1.505.695zm10.237-4.084a3.29 3.29 0 0 0 1.22-.6c.341-.272.603-.602.785-.987.181-.386.286-.819.312-1.299a4.817 4.817 0 0 0-.173-1.518l-.034-.127a4.97 4.97 0 0 0-.616-1.428 3.372 3.372 0 0 0-.932-.975 2.861 2.861 0 0 0-1.174-.463 3.224 3.224 0 0 0-1.346.088 3.29 3.29 0 0 0-1.22.6 2.755 2.755 0 0 0-.784.987 3.472 3.472 0 0 0-.313 1.299c-.027.48.032.992.178 1.536l.039.145c.292 1.088.799 1.882 1.522 2.381.724.5 1.569.62 2.536.36zm.317 1.256a4.888 4.888 0 0 1-1.965.137 4.542 4.542 0 0 1-1.738-.612 4.743 4.743 0 0 1-1.372-1.275 5.457 5.457 0 0 1-.86-1.83l-.038-.145a5.437 5.437 0 0 1-.172-2.053 4.866 4.866 0 0 1 .56-1.793 4.429 4.429 0 0 1 1.202-1.39 4.997 4.997 0 0 1 1.773-.855 5.018 5.018 0 0 1 1.953-.144c.638.082 1.219.279 1.743.592.524.313.984.734 1.378 1.263.395.53.688 1.15.879 1.864l.039.145c.19.713.249 1.4.173 2.062a4.663 4.663 0 0 1-.569 1.795 4.596 4.596 0 0 1-1.213 1.385 4.997 4.997 0 0 1-1.773.854zm4.65-11.587l1.506-.403.389 1.45c.097-.505.349-.98.754-1.426.406-.445.953-.76 1.642-.945a3.53 3.53 0 0 1 1.778-.04c.568.14 1.06.498 1.473 1.074a2.8 2.8 0 0 1 .405-.954c.194-.292.417-.55.668-.772.251-.223.524-.413.82-.57.294-.156.587-.274.877-.351a3.842 3.842 0 0 1 1.268-.126c.423.029.82.156 1.19.38.372.225.709.552 1.012.983.303.43.547.99.732 1.68l1.574 5.875-1.505.403-1.603-5.984c-.224-.834-.557-1.39-1-1.666-.444-.276-.992-.327-1.645-.152a2.872 2.872 0 0 0-.874.4c-.269.182-.493.41-.672.685a2.45 2.45 0 0 0-.357.95c-.06.36-.032.751.08 1.174l1.556 5.803-1.505.403-1.604-5.984c-.223-.834-.557-1.39-1-1.666-.443-.276-.992-.327-1.644-.152a2.872 2.872 0 0 0-.875.4c-.269.182-.492.41-.671.685a2.45 2.45 0 0 0-.358.95c-.06.36-.032.751.081 1.174l1.555 5.803-1.505.404-2.541-9.485zm16.72-4.48l1.506-.403.427 1.596c.072-.265.191-.534.358-.805a4.284 4.284 0 0 1 1.404-1.397c.3-.184.626-.323.977-.417a4.665 4.665 0 0 1 1.81-.135 3.94 3.94 0 0 1 1.622.576c.49.309.924.73 1.3 1.264.377.534.664 1.17.862 1.908l.039.145c.194.725.268 1.415.223 2.068a4.837 4.837 0 0 1-.455 1.784 3.941 3.941 0 0 1-1.09 1.37 4.492 4.492 0 0 1-1.682.83c-.786.211-1.494.22-2.122.025-.629-.195-1.145-.49-1.55-.887l1.302 4.86-1.505.403-3.425-12.785zm6.82 7.172c.943-.253 1.58-.75 1.913-1.494.332-.743.342-1.695.031-2.856l-.038-.145c-.16-.592-.378-1.094-.657-1.505-.278-.412-.587-.73-.926-.957a2.62 2.62 0 0 0-1.105-.423 2.976 2.976 0 0 0-1.194.077 3.53 3.53 0 0 0-1.166.545 2.707 2.707 0 0 0-.81.927 3.21 3.21 0 0 0-.352 1.3c-.036.495.027 1.045.189 1.65l.039.144c.162.605.378 1.11.65 1.517.27.407.581.722.933.946.351.223.74.355 1.165.397.426.041.869 0 1.328-.123zm10.971-2.94a3.29 3.29 0 0 0 1.22-.599c.341-.272.603-.602.785-.987.182-.386.286-.819.313-1.299a4.817 4.817 0 0 0-.174-1.518l-.034-.127a4.97 4.97 0 0 0-.616-1.429 3.372 3.372 0 0 0-.932-.974 2.861 2.861 0 0 0-1.173-.463 3.224 3.224 0 0 0-1.347.088 3.29 3.29 0 0 0-1.22.6 2.755 2.755 0 0 0-.784.987 3.472 3.472 0 0 0-.313 1.298c-.027.48.033.993.178 1.537l.04.145c.29 1.088.798 1.882 1.522 2.381.723.5 1.568.62 2.535.36zm.318 1.256a4.888 4.888 0 0 1-1.965.138 4.542 4.542 0 0 1-1.739-.613 4.743 4.743 0 0 1-1.372-1.274 5.457 5.457 0 0 1-.86-1.83l-.038-.145a5.437 5.437 0 0 1-.171-2.054 4.866 4.866 0 0 1 .56-1.792 4.429 4.429 0 0 1 1.2-1.39 4.997 4.997 0 0 1 1.774-.855 5.018 5.018 0 0 1 1.953-.144c.638.081 1.219.279 1.743.592.525.313.984.734 1.379 1.263.394.53.687 1.15.878 1.864l.039.145c.19.713.249 1.4.173 2.062a4.663 4.663 0 0 1-.568 1.795 4.596 4.596 0 0 1-1.213 1.384 4.997 4.997 0 0 1-1.773.854zm4.65-11.586l1.505-.403.404 1.505c.097-.505.359-.993.783-1.463.425-.47 1.03-.811 1.816-1.022.484-.13.95-.18 1.398-.15a2.7 2.7 0 0 1 1.24.386c.38.23.715.563 1.008 1.003.293.44.531 1.005.716 1.694l1.56 5.82-1.505.404-1.59-5.93c-.223-.834-.568-1.396-1.034-1.686-.466-.29-1.08-.332-1.842-.128-.35.094-.672.238-.963.433a2.482 2.482 0 0 0-.712.716 2.465 2.465 0 0 0-.361.971c-.058.365-.03.76.083 1.183l1.54 5.748-1.505.404-2.54-9.485zm17.528 5.644a4.97 4.97 0 0 1-1.942.15 4.492 4.492 0 0 1-1.711-.58 4.43 4.43 0 0 1-1.358-1.26c-.382-.532-.67-1.161-.865-1.886l-.039-.145a5.92 5.92 0 0 1-.2-2.055 4.721 4.721 0 0 1 .502-1.787 4.227 4.227 0 0 1 1.138-1.374 4.625 4.625 0 0 1 1.7-.835 5.053 5.053 0 0 1 1.658-.162c.56.038 1.09.19 1.59.458s.947.67 1.344 1.205c.396.535.707 1.226.934 2.072l.131.49-7.145 1.914c.328 1.079.823 1.837 1.484 2.275.662.438 1.482.526 2.462.264 1.487-.399 2.18-1.174 2.078-2.326l1.505-.403c.087 1-.167 1.842-.761 2.526-.594.684-1.43 1.17-2.505 1.459zm1.015-6.511c-.335-.96-.798-1.588-1.389-1.883-.59-.295-1.279-.337-2.065-.127-.774.208-1.34.622-1.698 1.243-.359.62-.49 1.372-.397 2.254l5.549-1.487zm3.037-4.915l1.505-.403.403 1.505c.098-.506.36-.994.784-1.464.425-.47 1.03-.81 1.816-1.02.483-.13.95-.18 1.398-.152a2.7 2.7 0 0 1 1.24.387c.379.229.715.563 1.008 1.003.292.44.531 1.004.716 1.693l1.56 5.822-1.506.403-1.589-5.93c-.223-.834-.568-1.396-1.034-1.686-.467-.29-1.08-.332-1.842-.128-.35.094-.672.238-.963.433a2.482 2.482 0 0 0-.712.715 2.465 2.465 0 0 0-.362.972c-.057.365-.03.76.084 1.182l1.54 5.749-1.505.403-2.541-9.484zm16.52 5.875c-.87.233-1.575.176-2.116-.172-.54-.348-.91-.896-1.111-1.646l-1.565-5.84-1.36.365-.34-1.269 1.36-.364-.578-2.158 1.505-.404.578 2.158 2.213-.593.34 1.27-2.213.593 1.526 5.694c.246.919.762 1.273 1.548 1.062a3.384 3.384 0 0 0 1.107-.51l.34 1.27a3.118 3.118 0 0 1-.487.285 4.44 4.44 0 0 1-.747.259zm6.72-1.762c-1.137.304-2.1.274-2.891-.09-.791-.365-1.342-1.03-1.653-1.997l1.469-.393c.213.552.53.946.949 1.184.42.237 1.01.254 1.772.05.726-.195 1.218-.46 1.478-.795s.322-.757.186-1.264c-.132-.496-.412-.803-.84-.922-.426-.119-1.027-.146-1.8-.081-.645.056-1.2.065-1.664.027-.463-.037-.851-.13-1.163-.28a1.974 1.974 0 0 1-.762-.632 3.115 3.115 0 0 1-.46-1.024 2.327 2.327 0 0 1-.018-1.23c.105-.383.28-.729.53-1.035.248-.306.547-.568.897-.785.35-.217.712-.375 1.087-.476.423-.113.84-.176 1.252-.19.41-.012.8.049 1.166.184.367.135.7.35 1 .646.299.295.547.689.743 1.18l-1.45.389c-.249-.49-.558-.813-.93-.966-.371-.153-.86-.148-1.464.014-.544.145-.946.386-1.206.721-.26.335-.335.709-.225 1.12.059.217.141.393.248.526.107.133.26.235.46.304.2.07.455.112.763.126.309.015.69 0 1.145-.044.51-.033.985-.047 1.427-.042.442.004.838.067 1.187.187.35.12.65.318.898.595.25.277.442.669.578 1.177.233.87.13 1.646-.31 2.327-.439.682-1.239 1.178-2.4 1.489zm6.998-1.953a1.17 1.17 0 0 1-.906-.117 1.146 1.146 0 0 1-.565-.733 1.146 1.146 0 0 1 .123-.917c.17-.285.412-.47.726-.554a1.17 1.17 0 0 1 .906.117c.29.162.478.406.566.732.087.327.046.633-.124.918a1.17 1.17 0 0 1-.726.554z" fill="#FFF"/><path fill="#DA046E" d="M95.448 121.367l92.303-24.733.389 1.45-92.304 24.733zM151.195 78.441l43.885-11.759.389 1.45-43.885 11.76z"/><g transform="rotate(-15 192.27 -258.711)"><circle fill="#FFF" cx="4.693" cy="4.693" r="4.693"/><path d="M4.322 4.224h2.151c.08 0 .126.092.08.158L4.4 7.468c-.055.079-.177.039-.177-.058V4.324c0-.055.044-.1.098-.1" fill="#5703CC"/><path d="M5.064 1.877a.094.094 0 0 0-.078.042L2.834 5.005c-.046.066 0 .158.08.158h2.151a.099.099 0 0 0 .098-.1V1.977c0-.061-.049-.1-.099-.1m-.37 1.282v1.534h-1.07l1.07-1.534" fill="#DA046E"/><path d="M5.163 5.063v-.839h-.47v.47h-.469v.469h.841a.099.099 0 0 0 .098-.1" fill="#500354"/></g><path d="M168.846 140l60.274-16.15c.3-.08.61.097.69.398l2.916 10.88c.08.3-.098.61-.399.69L216.721 140h-47.875z" fill="#DA046E"/><path d="M200.986 137.461l-.326.088-.082-.305.327-.087-.1-.37c-.062-.233-.053-.428.026-.586.079-.158.231-.267.458-.327a.81.81 0 0 1 .281-.03l.082.305a.536.536 0 0 0-.125-.004.77.77 0 0 0-.145.025c-.119.032-.194.091-.225.177a.5.5 0 0 0 0 .304l.109.409.557-.15.082.305-.558.15.529 1.971-.361.097-.529-1.972zm2.887 1.06a.79.79 0 0 0 .293-.144.661.661 0 0 0 .188-.237.833.833 0 0 0 .075-.312 1.156 1.156 0 0 0-.041-.364l-.009-.03a1.193 1.193 0 0 0-.147-.343.81.81 0 0 0-.224-.234.687.687 0 0 0-.282-.111.774.774 0 0 0-.323.021.79.79 0 0 0-.293.144.661.661 0 0 0-.188.237.833.833 0 0 0-.075.311c-.006.116.008.239.043.37l.01.034c.07.261.19.452.364.571.174.12.377.15.61.087zm.076.301c-.162.044-.32.055-.471.033a1.09 1.09 0 0 1-.747-.453 1.31 1.31 0 0 1-.206-.439l-.01-.035a1.305 1.305 0 0 1-.04-.492c.018-.158.063-.301.134-.43.07-.13.167-.241.288-.334a1.2 1.2 0 0 1 .426-.205c.16-.043.316-.055.469-.035a1.073 1.073 0 0 1 .749.445c.094.127.165.276.21.448l.01.034c.046.172.06.337.041.495a1.103 1.103 0 0 1-.428.763 1.2 1.2 0 0 1-.425.205zm1.116-2.78l.362-.097.11.409c.017-.073.041-.143.072-.208a.764.764 0 0 1 .297-.33c.071-.044.158-.08.259-.11l.09.339c-.111.036-.21.078-.297.126a.544.544 0 0 0-.297.441c-.01.1.003.22.04.36l.335 1.25-.36.096-.61-2.276zm2.842-.762l.362-.097.093.349a.707.707 0 0 1 .181-.343.796.796 0 0 1 .394-.227.847.847 0 0 1 .427-.01c.136.034.254.12.353.258a.672.672 0 0 1 .097-.229.946.946 0 0 1 .357-.321.922.922 0 0 1 .515-.115.63.63 0 0 1 .286.091c.09.054.17.133.243.236.073.103.131.238.176.403l.377 1.41-.36.097-.386-1.436c-.053-.2-.133-.334-.24-.4-.106-.066-.238-.079-.394-.037a.69.69 0 0 0-.21.096.578.578 0 0 0-.247.393.666.666 0 0 0 .02.282l.372 1.392-.36.097-.386-1.436c-.053-.2-.133-.333-.24-.4-.106-.066-.238-.078-.394-.036a.69.69 0 0 0-.21.096.578.578 0 0 0-.247.392.666.666 0 0 0 .02.282l.372 1.393-.36.096-.61-2.276zm5.204 1.088a1.127 1.127 0 0 1-.307.04.69.69 0 0 1-.274-.057.598.598 0 0 1-.217-.166.731.731 0 0 1-.14-.285.576.576 0 0 1 .008-.356.73.73 0 0 1 .196-.286c.091-.084.202-.156.334-.218a2.49 2.49 0 0 1 .414-.15l.327-.088-.045-.165c-.049-.183-.122-.304-.218-.364-.097-.06-.233-.066-.407-.02-.313.085-.45.268-.412.55l-.362.097a.8.8 0 0 1 .01-.357.716.716 0 0 1 .145-.275.86.86 0 0 1 .246-.196 1.417 1.417 0 0 1 .633-.17.674.674 0 0 1 .3.06c.093.042.176.109.25.2.075.093.134.218.176.378l.403 1.502-.361.096-.077-.287a.888.888 0 0 1-.227.322.965.965 0 0 1-.395.195zm-.043-.297a.965.965 0 0 0 .258-.109.662.662 0 0 0 .185-.163.523.523 0 0 0 .085-.457l-.076-.283-.313.084a2.02 2.02 0 0 0-.31.108.94.94 0 0 0-.231.144.436.436 0 0 0-.129.182.375.375 0 0 0-.002.226.408.408 0 0 0 .17.256c.083.05.204.055.363.012zm2.82-.447c-.16.042-.315.055-.464.037a1.069 1.069 0 0 1-.747-.436 1.33 1.33 0 0 1-.213-.456l-.01-.035a1.306 1.306 0 0 1-.04-.5 1.115 1.115 0 0 1 .834-.963 1.42 1.42 0 0 1 .357-.049c.12 0 .232.018.337.057.106.038.202.1.29.186a.96.96 0 0 1 .217.338l-.357.096c-.077-.172-.184-.28-.322-.324a.77.77 0 0 0-.442-.003.71.71 0 0 0-.458.372.842.842 0 0 0-.081.313c-.01.118.004.243.04.377l.01.034c.075.282.2.476.377.583.176.106.375.13.595.071a.8.8 0 0 0 .224-.097.65.65 0 0 0 .172-.158.596.596 0 0 0 .108-.477l.335-.09a.98.98 0 0 1-.006.368.917.917 0 0 1-.139.329 1.027 1.027 0 0 1-.257.26c-.104.074-.224.13-.36.167zm2.918-1.118c.174-.047.322-.12.443-.22.121-.099.215-.217.28-.354a1.23 1.23 0 0 0 .115-.462c.01-.171-.01-.35-.06-.54l-.01-.034a1.614 1.614 0 0 0-.208-.472 1.232 1.232 0 0 0-.327-.341 1.086 1.086 0 0 0-.93-.147c-.18.048-.333.122-.459.223-.125.1-.221.22-.288.36-.067.138-.105.292-.114.461-.01.17.011.346.06.532l.01.035c.05.189.126.352.227.492.102.139.219.25.351.335.133.084.278.138.433.161.156.024.315.014.477-.03zm.084.313c-.229.061-.45.076-.662.044a1.526 1.526 0 0 1-1.025-.623 1.747 1.747 0 0 1-.275-.584l-.01-.035a1.778 1.778 0 0 1-.055-.65 1.51 1.51 0 0 1 .572-1.051c.165-.131.363-.228.592-.289.23-.061.447-.076.655-.045a1.49 1.49 0 0 1 1.012.625c.123.172.214.367.273.584l.01.035c.058.22.077.436.056.647-.021.211-.079.406-.172.585a1.478 1.478 0 0 1-.386.467 1.556 1.556 0 0 1-.585.29zm3.2-.857a1.572 1.572 0 0 1-.551.06 1.045 1.045 0 0 1-.413-.12.931.931 0 0 1-.295-.256 1.47 1.47 0 0 1-.195-.354l.366-.098c.036.09.08.172.131.247a.605.605 0 0 0 .475.265c.11.01.243-.007.4-.049a.95.95 0 0 0 .267-.116.699.699 0 0 0 .194-.18.587.587 0 0 0 .1-.228.546.546 0 0 0-.01-.254.706.706 0 0 0-.095-.219.391.391 0 0 0-.165-.135.738.738 0 0 0-.262-.056 2.48 2.48 0 0 0-.39.016c-.17.017-.324.023-.464.017a1.176 1.176 0 0 1-.371-.07.66.66 0 0 1-.27-.19.847.847 0 0 1-.165-.336.788.788 0 0 1-.015-.352.834.834 0 0 1 .135-.324c.068-.099.157-.186.267-.263.11-.076.24-.134.388-.173.313-.084.582-.078.805.02.224.097.389.28.495.55l-.34.091c-.09-.187-.205-.308-.344-.362-.139-.055-.317-.053-.535.005-.214.058-.363.148-.447.272a.475.475 0 0 0-.066.407c.02.075.048.14.083.195a.334.334 0 0 0 .15.125.77.77 0 0 0 .257.055c.106.007.242.001.408-.018.181-.021.343-.027.485-.018.142.008.268.035.376.08a.68.68 0 0 1 .271.203c.073.09.129.208.168.356.035.131.04.26.017.385a.924.924 0 0 1-.146.352c-.074.108-.17.203-.29.285-.12.082-.256.144-.41.185zM216.514 6.485c-.16.043-.31.055-.447.036a.922.922 0 0 1-.659-.416 1.32 1.32 0 0 1-.179-.401l-.006-.024a1.236 1.236 0 0 1-.04-.44.98.98 0 0 1 .374-.699c.108-.086.237-.149.386-.189a1.19 1.19 0 0 1 .306-.041c.102 0 .198.016.288.048.091.033.173.084.247.154a.78.78 0 0 1 .18.272l-.253.067c-.073-.156-.171-.256-.296-.298a.699.699 0 0 0-.412-.003.8.8 0 0 0-.303.148.676.676 0 0 0-.188.238.797.797 0 0 0-.073.31c-.005.112.01.233.044.36l.007.024c.034.127.08.24.141.337.06.096.131.173.213.23a.649.649 0 0 0 .278.11.825.825 0 0 0 .338-.026.76.76 0 0 0 .276-.13.588.588 0 0 0 .164-.195.592.592 0 0 0 .063-.24.927.927 0 0 0-.027-.272l-.607.163-.056-.21.853-.228.042.154c.04.151.054.29.04.415a.814.814 0 0 1-.107.337.806.806 0 0 1-.237.251c-.1.07-.216.122-.35.158zm1.962-.526a.795.795 0 0 1-.31.025.709.709 0 0 1-.491-.294.92.92 0 0 1-.14-.303l-.005-.023a.947.947 0 0 1-.033-.329c.01-.105.036-.2.08-.286a.676.676 0 0 1 .183-.22.809.809 0 0 1 .537-.16.62.62 0 0 1 .47.267.98.98 0 0 1 .15.332l.02.078-1.143.306c.052.173.131.294.237.364.106.07.237.084.394.042.238-.063.349-.187.333-.372l.24-.064a.522.522 0 0 1-.121.404.782.782 0 0 1-.401.233zm.162-1.041c-.053-.154-.127-.254-.222-.302a.456.456 0 0 0-.33-.02.425.425 0 0 0-.272.199.582.582 0 0 0-.064.36l.888-.237zm1.36.627c-.14.038-.253.029-.339-.027a.43.43 0 0 1-.178-.263l-.25-.935-.218.059-.054-.203.217-.059-.092-.345.24-.065.093.346.354-.095.055.203-.354.095.244.91c.04.148.122.205.248.17a.541.541 0 0 0 .177-.08l.054.202a.499.499 0 0 1-.078.046.71.71 0 0 1-.12.041zm1.844-.487c-.182.048-.336.043-.463-.015a.497.497 0 0 1-.264-.32l.235-.062a.352.352 0 0 0 .151.19c.068.037.162.04.284.007.116-.031.195-.073.237-.127.041-.054.051-.121.03-.202-.022-.08-.067-.129-.135-.148a.86.86 0 0 0-.288-.013c-.103.01-.192.01-.266.005a.531.531 0 0 1-.187-.045.316.316 0 0 1-.121-.101.498.498 0 0 1-.074-.164.372.372 0 0 1-.003-.197.446.446 0 0 1 .085-.166.648.648 0 0 1 .318-.202.88.88 0 0 1 .2-.03.446.446 0 0 1 .347.133c.047.047.087.11.118.189l-.232.062a.304.304 0 0 0-.149-.154.37.37 0 0 0-.234.002.349.349 0 0 0-.193.115.195.195 0 0 0-.036.18c.01.034.023.062.04.083a.158.158 0 0 0 .074.05.441.441 0 0 0 .122.02c.049.002.11 0 .183-.008.081-.005.157-.007.228-.007.07.001.134.011.19.03.056.02.104.051.144.096.04.044.07.107.092.188.037.14.02.263-.05.372-.07.11-.198.189-.383.239zm1.417-.386c-.14.037-.252.028-.339-.028a.43.43 0 0 1-.178-.263l-.25-.935-.217.059-.055-.203.218-.059-.093-.345.241-.064.093.345.354-.095.054.203-.354.095.244.911c.04.147.122.204.248.17a.541.541 0 0 0 .177-.082l.054.203a.499.499 0 0 1-.078.046.71.71 0 0 1-.12.042zm.985-.258a.751.751 0 0 1-.204.027.46.46 0 0 1-.183-.039.398.398 0 0 1-.145-.11.487.487 0 0 1-.093-.19.384.384 0 0 1 .005-.237.486.486 0 0 1 .131-.19.88.88 0 0 1 .222-.146 1.66 1.66 0 0 1 .277-.1l.217-.059-.03-.11c-.032-.122-.08-.203-.145-.242-.065-.04-.155-.044-.27-.013-.21.056-.302.178-.276.366l-.24.064a.477.477 0 0 1 .103-.421.574.574 0 0 1 .163-.13.945.945 0 0 1 .423-.114.45.45 0 0 1 .2.04.463.463 0 0 1 .166.134c.05.061.09.145.118.251l.268 1.001-.241.065-.051-.192a.592.592 0 0 1-.151.215.643.643 0 0 1-.264.13zm-.028-.198a.644.644 0 0 0 .172-.072.442.442 0 0 0 .123-.11.351.351 0 0 0 .057-.304l-.05-.189-.21.056c-.075.02-.144.045-.206.073a.626.626 0 0 0-.154.096.29.29 0 0 0-.086.12.25.25 0 0 0-.002.152c.022.079.06.136.114.17.055.034.136.037.242.008zm.836-1.673l.24-.065.074.273a.742.742 0 0 1 .048-.139.513.513 0 0 1 .198-.22.73.73 0 0 1 .173-.073l.06.226c-.074.024-.14.052-.198.084a.363.363 0 0 0-.198.294.678.678 0 0 0 .027.24l.223.833-.24.064-.407-1.517zm2 1.112c-.14.038-.253.029-.34-.027a.43.43 0 0 1-.177-.263l-.25-.935-.218.059-.055-.203.218-.059-.093-.345.241-.065.093.346.354-.095.054.203-.354.095.244.91c.04.148.122.205.248.17a.541.541 0 0 0 .177-.08l.055.202a.499.499 0 0 1-.078.046.71.71 0 0 1-.12.041zm1.225-.322a.795.795 0 0 1-.31.024.709.709 0 0 1-.491-.294.92.92 0 0 1-.139-.302l-.006-.023a.947.947 0 0 1-.032-.33c.009-.104.036-.2.08-.285a.676.676 0 0 1 .182-.22.809.809 0 0 1 .537-.16.62.62 0 0 1 .47.267.98.98 0 0 1 .15.331l.02.079-1.143.306c.053.173.132.294.238.364.105.07.237.084.393.042.238-.064.35-.188.333-.372l.24-.064a.522.522 0 0 1-.121.404.782.782 0 0 1-.4.233zm.163-1.042c-.054-.153-.128-.254-.223-.3a.456.456 0 0 0-.33-.021.425.425 0 0 0-.272.199.582.582 0 0 0-.063.36l.888-.238zm1.47.604a.754.754 0 0 1-.287.023.626.626 0 0 1-.257-.09.702.702 0 0 1-.206-.2.965.965 0 0 1-.136-.303l-.006-.024a.97.97 0 0 1-.034-.333.8.8 0 0 1 .078-.29.66.66 0 0 1 .18-.223.724.724 0 0 1 .271-.135.567.567 0 0 1 .569.136l-.26-.969.24-.064.602 2.243-.241.064-.07-.261a.5.5 0 0 1-.058.13.67.67 0 0 1-.23.229.562.562 0 0 1-.154.067zm-.027-.207a.577.577 0 0 0 .188-.087.43.43 0 0 0 .131-.15.53.53 0 0 0 .058-.207.775.775 0 0 0-.029-.265l-.006-.023c-.052-.195-.134-.328-.245-.398a.473.473 0 0 0-.39-.044.454.454 0 0 0-.313.245c-.059.124-.063.278-.013.464l.006.023c.026.097.06.177.104.241a.522.522 0 0 0 .145.15.414.414 0 0 0 .175.065.482.482 0 0 0 .19-.014z" fill="#FFF"/></svg>
