<svg width="360" height="140" xmlns="http://www.w3.org/2000/svg" xmlns:xlink="http://www.w3.org/1999/xlink"><defs><rect id="a" width="307" height="172.69" rx="5"/><filter x="-14.7%" y="-26.1%" width="129.3%" height="152.1%" filterUnits="objectBoundingBox" id="b"><feOffset in="SourceAlpha" result="shadowOffsetOuter1"/><feGaussianBlur stdDeviation="15" in="shadowOffsetOuter1" result="shadowBlurOuter1"/><feColorMatrix values="0 0 0 0 0 0 0 0 0 0 0 0 0 0 0 0 0 0 0.5 0" in="shadowBlurOuter1"/></filter></defs><g fill="none" fill-rule="evenodd"><path fill="#4578BF" d="M0 0h360v140H0z"/><g transform="rotate(-15 103.48 -9.56)"><use fill="#000" filter="url(#b)" xlink:href="#a"/><use fill="#FFF" xlink:href="#a"/></g><g stroke="#000" stroke-linecap="round" stroke-linejoin="round" stroke-width="2"><g transform="rotate(-15 437.25 -971.27)"><path d="M16 18v-2a4 4 0 0 0-4-4H4a4 4 0 0 0-4 4v2"/><circle cx="8" cy="4" r="4"/></g><path d="M231.25 88.42l-6.55 14.18 8.69-2.33 1.1 8 6.56-14.19-8.7 2.33z"/><g transform="rotate(-15 521.15 -275.26)"><circle cx="7" cy="7" r="7"/><path d="M3.21 12.89L2 22l5-3 5 3-1.21-9.12"/></g><g transform="rotate(-15 478.95 -625.16)"><rect y="2" width="18" height="18" rx="2"/><path d="M13 0v4M5 0v4M0 8h18"/></g><g transform="rotate(-15 507.75 -435.77)"><path d="M22 16a2 2 0 0 1-2 2H2a2 2 0 0 1-2-2V5c0-1.1.9-2 2-2h4l2-3h6l2 3h4a2 2 0 0 1 2 2v11z"/><circle cx="11" cy="10" r="4"/></g></g><g stroke="#000" stroke-linecap="round" stroke-linejoin="round" stroke-width="2"><path d="M192.18 42.02a16.94 16.94 0 1 0-29.36-16.94l-13.48 23.33 6.2 23.17 23.2-6.2 13.44-23.36zM177.8 33.8l-27.57 47.77M187.1 51.58l-23.17 6.22"/></g></g></svg>